<?xml version="1.0" encoding="utf-8"?>
<!-- Uploaded to: SVG Repo, www.svgrepo.com, Generator: SVG Repo Mixer Tools -->
<svg width="800px" height="800px" viewBox="0 0 1024 1024" fill="#000000" class="icon"  version="1.1" xmlns="http://www.w3.org/2000/svg"><path d="M200.504 512c-4.422 0-8.078-3.578-8.078-8 0-4.42 3.5-8 7.906-8h0.172c4.406 0 8 3.578 8 8 0 4.422-3.594 8-8 8zM232.502 512c-4.422 0-8.078-3.578-8.078-8 0-4.42 3.5-8 7.906-8h0.172c4.406 0 8 3.578 8 8 0 4.422-3.594 8-8 8zM264.5 512c-4.422 0-8.078-3.578-8.078-8 0-4.42 3.5-8 7.906-8h0.172c4.406 0 8 3.578 8 8 0 4.422-3.594 8-8 8zM296.498 512c-4.422 0-8.078-3.578-8.078-8 0-4.42 3.5-8 7.906-8h0.172c4.406 0 8 3.578 8 8 0 4.422-3.594 8-8 8zM360.494 512c-4.422 0-8.078-3.578-8.078-8 0-4.42 3.5-8 7.906-8h0.172c4.406 0 8 3.578 8 8 0 4.422-3.594 8-8 8zM392.492 512c-4.422 0-8.078-3.578-8.078-8 0-4.42 3.5-8 7.906-8h0.172c4.406 0 8 3.578 8 8 0 4.422-3.594 8-8 8zM424.49 512c-4.422 0-8.078-3.578-8.078-8 0-4.42 3.5-8 7.906-8h0.172c4.406 0 8 3.578 8 8 0 4.422-3.594 8-8 8zM456.488 512c-4.422 0-8.078-3.578-8.078-8 0-4.42 3.5-8 7.906-8h0.172c4.406 0 8 3.578 8 8 0 4.422-3.594 8-8 8zM520.484 512c-4.422 0-8.078-3.578-8.078-8 0-4.42 3.5-8 7.906-8h0.172c4.406 0 8 3.578 8 8 0 4.422-3.594 8-8 8zM552.482 512c-4.422 0-8.076-3.578-8.076-8 0-4.42 3.5-8 7.904-8h0.172c4.406 0 8 3.578 8 8 0 4.422-3.594 8-8 8zM584.48 512c-4.422 0-8.078-3.578-8.078-8 0-4.42 3.5-8 7.906-8h0.172c4.406 0 8 3.578 8 8 0 4.422-3.594 8-8 8zM616.478 512c-4.422 0-8.076-3.578-8.076-8 0-4.42 3.5-8 7.904-8h0.172c4.406 0 8 3.578 8 8 0 4.422-3.594 8-8 8zM8.032 591.996c-4.422 0-8-3.578-8-8V168.022c0-4.422 3.578-8 8-8s8 3.578 8 8v415.974c0 4.422-3.578 8-8 8zM120.026 591.996a8 8 0 0 1-5.656-13.656l10.342-10.344-10.342-10.344a7.996 7.996 0 0 1 0-11.31l10.342-10.344-10.342-10.342a8 8 0 0 1 0-11.312l10.34-10.344-10.342-10.342a8 8 0 0 1 0-11.312l10.342-10.344-10.342-10.342a8 8 0 0 1 0-11.312l10.342-10.344-10.342-10.342a8 8 0 0 1 0-11.312l10.342-10.344-10.342-10.342a8 8 0 0 1 0-11.312l10.342-10.344-10.342-10.342a8 8 0 0 1 0-11.312l10.342-10.344-10.342-10.342a8 8 0 0 1 0-11.312l10.342-10.344-10.342-10.342a8 8 0 0 1 0-11.312l10.342-10.344-10.342-10.342a8 8 0 0 1 0-11.312l10.342-10.344-10.342-10.342a8 8 0 0 1 0-11.312l10.342-10.344-10.342-10.342a8 8 0 0 1 0-11.312l10.342-10.344-10.342-10.342a8 8 0 0 1 11.31-11.312l16 16a8 8 0 0 1 0 11.312l-10.344 10.344 10.344 10.342a8 8 0 0 1 0 11.312l-10.344 10.344 10.344 10.342a8 8 0 0 1 0 11.312l-10.344 10.344 10.344 10.342a8 8 0 0 1 0 11.312l-10.344 10.344 10.344 10.342a8 8 0 0 1 0 11.312l-10.344 10.344 10.344 10.342a8 8 0 0 1 0 11.312l-10.344 10.344 10.344 10.342a8 8 0 0 1 0 11.312l-10.344 10.344 10.344 10.342a8 8 0 0 1 0 11.312l-10.344 10.344 10.344 10.342a8 8 0 0 1 0 11.312l-10.344 10.344 10.344 10.342a8 8 0 0 1 0 11.312l-10.344 10.344 10.344 10.342a8 8 0 0 1 0 11.312L131.336 520l10.344 10.344a7.996 7.996 0 0 1 0 11.31l-10.344 10.344 10.344 10.342a8 8 0 0 1 0 11.312l-16 16a7.972 7.972 0 0 1-5.654 2.344z" fill="" /><path d="M120.026 176.02H8.032c-4.422 0-8-3.578-8-8 0-4.422 3.578-8 8-8h111.994a7.994 7.994 0 0 1 7.998 8c0 4.422-3.578 8-7.998 8zM120.026 591.996H8.032c-4.422 0-8-3.578-8-8s3.578-8 8-8h111.994c4.42 0 7.998 3.578 7.998 8s-3.578 8-7.998 8zM1015.97 176.02H152.024c-4.422 0-8-3.578-8-8 0-4.422 3.578-8 8-8h863.948a7.994 7.994 0 0 1 7.998 8 7.998 7.998 0 0 1-8 8z" fill="" /><path d="M1015.97 591.996c-4.422 0-8-3.578-8-8V168.022c0-4.422 3.578-8 8-8a7.994 7.994 0 0 1 7.998 8v415.974c0 4.422-3.578 8-7.998 8z" fill="" /><path d="M1015.97 591.996H152.024c-4.422 0-8-3.578-8-8s3.578-8 8-8h863.948c4.42 0 7.998 3.578 7.998 8s-3.58 8-8 8zM248.018 332.042a17.396 17.396 0 0 1-12.406-5.124c-1.172-1.164-4.016-2.376-6.782-2.376-2.968 0.562-4.5 0.766-6.046 0.766a17.616 17.616 0 0 1-16.982-13.008c-0.61-2.328-3.734-5.436-6.046-6.062-9.36-2.5-14.936-12.148-12.436-21.506 0.64-2.336-0.5-6.578-2.204-8.282a17.426 17.426 0 0 1-5.124-12.42c0-4.704 1.812-9.11 5.124-12.422 1.704-1.696 2.828-5.954 2.204-8.272-2.5-9.366 3.076-19.014 12.436-21.514 2.312-0.624 5.438-3.734 6.046-6.054 2.468-9.132 12.312-14.944 21.514-12.428 4.344 0.062 7.11-1.046 8.282-2.21 6.624-6.624 18.232-6.624 24.858 0.016 1.172 1.172 4.016 2.382 6.766 2.382 2.984-0.57 4.5-0.766 6.032-0.766a17.556 17.556 0 0 1 16.966 13.06c0.624 2.274 3.734 5.39 6.046 6.016a17.412 17.412 0 0 1 10.672 8.204 17.414 17.414 0 0 1 1.734 13.32c-0.61 2.288 0.532 6.554 2.218 8.234 6.858 6.868 6.858 18.006 0.016 24.858-1.704 1.704-2.844 5.954-2.218 8.274a17.444 17.444 0 0 1-1.75 13.296 17.416 17.416 0 0 1-10.672 8.202c-2.312 0.624-5.438 3.734-6.046 6.062a17.598 17.598 0 0 1-16.966 13.008 17.376 17.376 0 0 1-4.532-0.602c-4.438-0.226-7.124 1.046-8.282 2.21a17.486 17.486 0 0 1-12.422 5.138z m-19.188-23.5c6.812 0 13.734 2.704 18.094 7.062l1.094 0.438a1.542 1.542 0 0 0 1.11-0.454c5.624-5.632 15.966-8.436 23.716-6.352 0.906-0.04 1.704-0.336 1.906-1.094 2.094-7.82 9.576-15.288 17.388-17.374 0-0.008 1.094-1.898 1.078-1.906-2.094-7.828 0.656-18.03 6.39-23.74 0.578-0.578 0.578-1.61-0.016-2.204-5.704-5.672-8.438-15.868-6.376-23.694l-1.078-1.938c-7.796-2.084-15.264-9.538-17.374-17.334a1.616 1.616 0 0 0-1.516-1.196c-9.376 2.296-18.468-0.672-24.108-6.304l-7.89-5.67 5.656 5.656c-5.624 5.632-15.954 8.446-23.718 6.352-1.016-0.016-1.718 0.344-1.922 1.11-2.092 7.812-9.56 15.282-17.388 17.374a1.596 1.596 0 0 0-1.094 1.93c2.078 7.804-0.64 18.006-6.36 23.718-0.516 0.524-0.516 1.696 0 2.218 5.734 5.734 8.454 15.936 6.344 23.748a1.596 1.596 0 0 0 1.11 1.898c7.828 2.094 15.296 9.562 17.388 17.374a1.576 1.576 0 0 0 1.516 1.148c2.176-0.522 4.066-0.766 6.05-0.766z" fill="" /><path d="M248.018 288.014c-13.234 0-24-10.766-24-23.998 0-13.234 10.766-24 24-24 13.232 0 23.998 10.764 23.998 24 0 13.232-10.766 23.998-23.998 23.998z m0-31.998c-4.406 0-8 3.586-8 8s3.594 8 8 8a8.01 8.01 0 0 0 7.998-8c0-4.414-3.594-8-7.998-8zM520 240.016h-175.988c-4.422 0-8-3.578-8-8 0-4.422 3.578-8 8-8H520c4.422 0 8 3.578 8 8 0 4.422-3.578 8-8 8zM520 272.014h-175.988c-4.422 0-8-3.578-8-8 0-4.422 3.578-8 8-8H520c4.422 0 8 3.578 8 8 0 4.422-3.578 8-8 8zM440.006 304.012h-95.994c-4.422 0-8-3.578-8-8 0-4.422 3.578-8 8-8h95.994a7.994 7.994 0 0 1 7.998 8c0 4.422-3.578 8-7.998 8zM615.994 400.006H204.02c-4.422 0-8-3.578-8-8 0-4.422 3.578-8 8-8h411.974c4.422 0 8 3.578 8 8 0 4.422-3.578 8-8 8zM615.994 432.004H204.02c-4.422 0-8-3.578-8-8 0-4.422 3.578-8 8-8h411.974c4.422 0 8 3.578 8 8 0 4.422-3.578 8-8 8zM296.014 543.998H200.02c-4.422 0-8-3.578-8-8a7.994 7.994 0 0 1 8-7.998h95.994c4.422 0 8 3.578 8 7.998 0 4.422-3.578 8-8 8zM617.494 543.998H520c-4.422 0-8-3.578-8-8a7.994 7.994 0 0 1 8-7.998h97.494c4.422 0 8 3.578 8 7.998 0 4.422-3.578 8-8 8zM951.974 543.998H663.992c-4.422 0-8-3.578-8-8a7.994 7.994 0 0 1 8-7.998h287.982a7.994 7.994 0 0 1 7.998 7.998c0 4.422-3.578 8-7.998 8zM456.004 543.998h-95.994c-4.422 0-8-3.578-8-8a7.994 7.994 0 0 1 8-7.998h95.994c4.422 0 8 3.578 8 7.998 0 4.422-3.578 8-8 8zM951.974 448.004H663.992c-4.422 0-8-3.578-8-8v-63.996c0-4.42 3.578-8 8-8h287.982a7.994 7.994 0 0 1 7.998 8v63.996c0 4.422-3.578 8-7.998 8z m-279.982-16h271.982v-47.998H671.992v47.998z" fill="" /><path d="M823.982 559.996a8.006 8.006 0 0 1-8-7.998v-29.224c-12.608 10.788-31.374 23.646-47.702 20.85-4.686-0.782-10.482-3.078-15.404-8.984a640.26 640.26 0 0 1-18.858 22.608 7.98 7.98 0 0 1-11.282 0.782 7.992 7.992 0 0 1-0.782-11.28 585.166 585.166 0 0 0 23.044-28.272c-5.874-21.14 0.828-39.78 10.078-48.616 7.016-6.67 15.716-8.6 23.92-5.272 3.688 1.5 6.218 4.484 7.156 8.398 2.36 9.89-9 29.17-23.044 48.294 3.014 5.68 6.404 6.304 7.67 6.54 14.844 2.804 41.186-22.016 47.014-28.882 2.156-2.562 5.75-3.578 8.89-2.39 3.154 1.156 5.294 4.092 5.294 7.452v21.578l17.344-26.014a8.002 8.002 0 0 1 6.656-3.562h31.998a7.994 7.994 0 0 1 7.998 8c0 4.422-3.578 8-7.998 8h-27.716l-29.624 44.434a8 8 0 0 1-6.652 3.558z m-53.872-80.884c-1.094 0.218-2.438 0.852-3.984 2.32-3.654 3.5-6.482 9.914-7.138 17.664 5.73-8.548 9.808-15.672 11.122-19.984zM711.988 432.004c-4.422 0-8-3.578-8-8v-31.998c0-4.422 3.578-8 8-8s8 3.578 8 8v31.998c0 4.422-3.578 8-8 8zM759.986 432.004c-13.234 0-23.998-10.764-23.998-24 0-13.232 10.764-23.998 23.998-23.998 13.232 0 23.998 10.766 23.998 23.998 0 13.236-10.766 24-23.998 24z m0-31.998c-4.406 0-8 3.586-8 8s3.594 8 8 8a8.01 8.01 0 0 0 7.998-8c0-4.414-3.594-8-7.998-8zM823.982 432.004c-13.234 0-23.998-10.764-23.998-24 0-13.232 10.764-23.998 23.998-23.998 13.232 0 23.998 10.766 23.998 23.998 0 13.236-10.766 24-23.998 24z m0-31.998c-4.406 0-8 3.586-8 8s3.594 8 8 8a8.01 8.01 0 0 0 7.998-8c0-4.414-3.594-8-7.998-8zM887.978 432.004c-13.234 0-23.998-10.764-23.998-24 0-13.232 10.764-23.998 23.998-23.998 13.232 0 23.998 10.766 23.998 23.998 0 13.236-10.766 24-23.998 24z m0-31.998c-4.406 0-8 3.586-8 8s3.594 8 8 8a8.01 8.01 0 0 0 7.998-8c0-4.414-3.594-8-7.998-8zM152.024 655.992a8.02 8.02 0 0 1-7.156-4.422l-31.998-63.996a8.004 8.004 0 0 1 3.578-10.734 8.014 8.014 0 0 1 10.732 3.578l31.998 63.996c1.968 3.954 0.376 8.766-3.576 10.734a8.18 8.18 0 0 1-3.578 0.844z" fill="" /><path d="M152.024 655.992H40.03c-4.422 0-8-3.578-8-8s3.578-8 8-8h111.994c4.42 0 7.998 3.578 7.998 8s-3.578 8-7.998 8z" fill="" /><path d="M40.03 655.992a8.02 8.02 0 0 1-7.156-4.422L0.876 587.574a8.004 8.004 0 0 1 3.578-10.734 8.016 8.016 0 0 1 10.734 3.578l31.998 63.996a8.004 8.004 0 0 1-3.578 10.734 8.18 8.18 0 0 1-3.578 0.844zM1015.97 655.992H184.022c-4.422 0-8-3.578-8-8s3.578-8 8-8h831.95c4.42 0 7.998 3.578 7.998 8s-3.58 8-8 8zM1015.97 623.992H168.022c-4.422 0-8-3.578-8-7.998 0-4.422 3.578-8 8-8h847.95a7.994 7.994 0 0 1 7.998 8 7.998 7.998 0 0 1-8 7.998zM56.03 799.982a8 8 0 0 1-3.578-15.154l95.994-47.998a8.054 8.054 0 0 1 6.11-0.438l46.762 15.592h30.702c4.422 0 8 3.578 8 8s-3.578 8-8 8h-32c-0.86 0-1.718-0.14-2.532-0.406l-44.856-14.954-93.026 46.514a8.14 8.14 0 0 1-3.576 0.844z" fill="" /><path d="M152.024 847.98a7.98 7.98 0 0 1-3.578-0.844l-95.994-47.998a8.004 8.004 0 0 1-3.578-10.734 8.04 8.04 0 0 1 10.734-3.576l93.026 46.512 44.856-14.954a8.16 8.16 0 0 1 2.532-0.406h31.998c4.422 0 8 3.578 8 8s-3.578 8-8 8h-30.702l-46.762 15.594a7.8 7.8 0 0 1-2.532 0.406zM392.008 847.98c-4.422 0-8-3.578-8-8v-95.994c0-4.422 3.578-8 8-8s8 3.578 8 8v95.994c0 4.422-3.578 8-8 8z" fill="" /><path d="M392.008 751.984a8.006 8.006 0 0 1-8-7.748 8.02 8.02 0 0 1 7.75-8.25l527.968-15.998h0.25a8.006 8.006 0 0 1 8 7.748 8.02 8.02 0 0 1-7.75 8.25l-527.968 15.998h-0.25zM919.976 863.978h-0.25l-527.968-15.998a8.02 8.02 0 0 1-7.75-8.25 8.006 8.006 0 0 1 8-7.75h0.25l527.968 16a8.02 8.02 0 0 1 7.75 8.248 8.006 8.006 0 0 1-8 7.75z" fill="" /><path d="M919.976 863.978c-4.422 0-8-3.578-8-8a7.994 7.994 0 0 1 8-7.998c30.874 0 55.996-25.124 55.996-55.998s-25.124-55.996-55.996-55.996c-4.422 0-8-3.578-8-8a7.994 7.994 0 0 1 8-7.998c39.7 0 71.996 32.292 71.996 71.994s-32.296 71.996-71.996 71.996z" fill="" /><path d="M983.972 831.98c-4.422 0-8-3.578-8-8v-63.996c0-4.422 3.578-8 8-8s8 3.578 8 8v63.996c0 4.422-3.578 8-8 8zM951.974 783.984H679.99c-4.42 0-7.998-3.578-7.998-8s3.578-8 7.998-8h271.984c4.42 0 7.998 3.578 7.998 8s-3.578 8-7.998 8zM951.974 815.98H679.99a7.994 7.994 0 0 1-7.998-7.998c0-4.422 3.578-8 7.998-8h271.984a7.994 7.994 0 0 1 7.998 8 7.994 7.994 0 0 1-7.998 7.998z" fill="" /><path d="M679.99 815.98a8.176 8.176 0 0 1-3.578-0.844l-31.998-15.998c-2.704-1.36-4.422-4.124-4.422-7.156s1.718-5.794 4.422-7.154l31.998-16a8.016 8.016 0 0 1 10.734 3.578 8.004 8.004 0 0 1-3.578 10.734l-17.686 8.842 17.686 8.844a8.004 8.004 0 0 1 3.578 10.734 8.02 8.02 0 0 1-7.156 4.42zM360.01 847.98c-4.422 0-8-3.578-8-8v-95.994c0-4.422 3.578-8 8-8s8 3.578 8 8v95.994c0 4.422-3.578 8-8 8z" fill="" /><path d="M392.008 847.98h-31.998c-4.422 0-8-3.578-8-8s3.578-8 8-8h31.998c4.422 0 8 3.578 8 8s-3.578 8-8 8zM392.008 751.984h-31.998c-4.422 0-8-3.578-8-7.998 0-4.422 3.578-8 8-8h31.998c4.422 0 8 3.578 8 8a7.994 7.994 0 0 1-8 7.998zM232.018 847.98c-4.422 0-8-3.578-8-8v-95.994c0-4.422 3.578-8 8-8s8 3.578 8 8v95.994c0 4.422-3.578 8-8 8z" fill="" /><path d="M360.01 847.98h-127.992c-4.422 0-8-3.578-8-8s3.578-8 8-8h127.992c4.422 0 8 3.578 8 8s-3.578 8-8 8zM360.01 751.984h-127.992c-4.422 0-8-3.578-8-7.998 0-4.422 3.578-8 8-8h127.992c4.422 0 8 3.578 8 8a7.994 7.994 0 0 1-8 7.998z" fill="" /></svg>