<?xml version="1.0" encoding="iso-8859-1"?>
<!-- Uploaded to: SVG Repo, www.svgrepo.com, Generator: SVG Repo Mixer Tools -->
<svg fill="#000000" height="800px" width="800px" version="1.1" id="Layer_1" xmlns="http://www.w3.org/2000/svg" xmlns:xlink="http://www.w3.org/1999/xlink" 
	 viewBox="0 0 503.607 503.607" xml:space="preserve">
<g transform="translate(1 1)">
	<g>
		<g>
			<path d="M326.344,200.443h-51.2l50.361-79.738c1.679-2.518,1.679-5.875,0-8.393c-1.679-2.518-4.197-4.197-7.554-4.197h-67.148
				c-3.357,0-5.875,1.679-7.554,4.197l-75.541,134.295c-1.679,2.518-1.679,5.875,0,8.393c1.679,2.518,4.197,4.197,7.554,4.197
				h43.646l-51.2,123.384c-1.679,3.357,0,7.554,3.357,10.072c0.839,0.839,2.518,0.839,4.197,0.839c2.518,0,5.036-0.839,6.715-2.518
				l151.082-176.262c1.679-2.518,2.518-5.875,0.839-9.233S329.702,200.443,326.344,200.443z M202.961,338.934l35.253-85.613
				c0.839-2.518,0.839-5.036-0.839-7.554c-1.679-1.679-4.197-3.357-6.715-3.357h-41.128L255,124.902h47.003l-50.361,79.738
				c-1.679,2.518-1.679,5.875,0,8.393c1.679,2.518,4.197,4.197,7.554,4.197h48.682L202.961,338.934z"/>
			<path d="M452.246-1H49.361C21.662-1-1,21.662-1,49.361v402.885c0,27.698,22.662,50.361,50.361,50.361h402.885
				c27.698,0,50.361-22.662,50.361-50.361V49.361C502.607,21.662,479.944-1,452.246-1z M485.82,452.246
				c0,18.466-15.108,33.574-33.574,33.574H49.361c-18.466,0-33.574-15.108-33.574-33.574V49.361
				c0-18.466,15.108-33.574,33.574-33.574h402.885c18.466,0,33.574,15.108,33.574,33.574V452.246z"/>
			<path d="M250.803,49.361c-110.793,0-201.443,90.649-201.443,201.443s90.649,201.443,201.443,201.443
				s201.443-90.649,201.443-201.443S361.597,49.361,250.803,49.361z M250.803,435.459c-101.561,0-184.656-83.095-184.656-184.656
				S149.243,66.148,250.803,66.148s184.656,83.095,184.656,184.656S352.364,435.459,250.803,435.459z"/>
			<path d="M49.361,66.148c9.233,0,16.787-7.554,16.787-16.787s-7.554-16.787-16.787-16.787s-16.787,7.554-16.787,16.787
				S40.128,66.148,49.361,66.148z"/>
			<path d="M49.361,435.459c-9.233,0-16.787,7.554-16.787,16.787c0,9.233,7.554,16.787,16.787,16.787s16.787-7.554,16.787-16.787
				C66.148,443.013,58.593,435.459,49.361,435.459z"/>
			<path d="M452.246,32.574c-9.233,0-16.787,7.554-16.787,16.787s7.554,16.787,16.787,16.787c9.233,0,16.787-7.554,16.787-16.787
				S461.479,32.574,452.246,32.574z"/>
			<path d="M452.246,435.459c-9.233,0-16.787,7.554-16.787,16.787c0,9.233,7.554,16.787,16.787,16.787
				c9.233,0,16.787-7.554,16.787-16.787C469.033,443.013,461.479,435.459,452.246,435.459z"/>
		</g>
	</g>
</g>
</svg>