<?xml version="1.0" encoding="utf-8"?>

<!DOCTYPE svg PUBLIC "-//W3C//DTD SVG 1.1//EN" "http://www.w3.org/Graphics/SVG/1.1/DTD/svg11.dtd">
<!-- Uploaded to: SVG Repo, www.svgrepo.com, Generator: SVG Repo Mixer Tools -->
<svg height="800px" width="800px" version="1.1" id="_x32_" xmlns="http://www.w3.org/2000/svg" xmlns:xlink="http://www.w3.org/1999/xlink" 
	 viewBox="0 0 512 512"  xml:space="preserve">
<style type="text/css">
	.st0{fill:#000000;}
</style>
<g>
	<path class="st0" d="M482.429,142.558l-52.057-22.034c-4.959,4.637-12.082,8.869-22.244,10.566
		c-1.718,0.286-3.848,0.496-6.293,0.656l57.715,24.429l-45.926,19.436c5.573,3.68,10.14,6.558,13.199,8.45
		c0.475,0.287,0.88,0.628,1.32,0.943l39.382-16.67v70.347l-86.906,36.784c-0.349,1.369-0.642,2.493-0.81,3.01
		c-2.906,9.225-11.314,15.42-20.896,15.42c-4.547,0-8.982-1.39-12.732-3.855l-86.62,36.664v-70.347l41.666-17.634
		c-3.003-4.03-5.797-7.976-8.548-11.914l-40.269,17.04l-34.737-14.708c-2.78,3.926-5.643,7.864-8.674,11.873l36.26,15.344v70.347
		l-82.59-34.954c-2.989,1.362-6.244,2.144-9.575,2.144c-9.435,0-17.676-6.006-20.72-14.973l-68.846-29.136v-0.461l-19.052-8.066
		v-69.894l36.93,15.63c1.146-1.055,2.361-2.06,3.743-2.912c2.535-1.565,6.118-3.82,10.406-6.628l-44.5-18.835l63.035-26.678
		c-5.503-0.188-8.422-0.552-10.203-0.852c-9.247-1.544-15.93-5.189-20.819-9.316l-60.047,25.414v108.291l19.052,8.066v158.762
		L253.996,512l215.931-91.39V261.68l19.052-8.059V145.33L482.429,142.558z M245.259,485.001L63.527,408.088v-142.77l181.732,76.92
		V485.001z M448.473,406.391l-188.911,79.958v-144.11l188.911-79.965V406.391z"/>
	<path class="st0" d="M106.931,112.751c12.236,2.032,61.527-0.572,98.003-2.898c-37.447,43.418-92.199,79.042-109.994,90.034
		c-3.709,2.298-1.921,5.462,0.349,6.181c2.277,0.712,39.808,17.222,39.808,17.222c2.193,0.95,3.806,2.884,4.358,5.21
		c0,0,9.407,41.037,10.462,44.375c1.054,3.338,4.77,2.758,6.397,1.082c59.767-61.499,86.466-121.161,97.333-152.442
		c0.782,0.056,1.564,0.119,2.36,0.119c0.79,0,1.565-0.063,2.347-0.119c10.866,31.281,37.572,90.943,97.332,152.442
		c1.634,1.676,5.343,2.256,6.397-1.082c1.055-3.338,10.462-44.375,10.462-44.375c0.552-2.326,2.165-4.26,4.358-5.21
		c0,0,37.531-16.51,39.808-17.222c2.27-0.72,4.058-3.883,0.349-6.181c-17.808-10.992-72.652-46.686-110.092-90.16
		c35.848,2.361,85.649,5.098,98.101,3.024c20.008-3.338,21.119-22.229,18.891-30.008c-1.599-5.573-20.128-52.889-37.782-73.351
		c-7.025-8.15-21.119-13.339-31.12-5.559c-19.582,15.232-50.15,40.199-66.639,53.719c-4.19-10.294-13.143-18.074-32.412-18.074
		c-19.624,0-28.57,8.052-32.67,18.619c-14.868-12.466-45.842-38.271-66.395-54.264c-10-7.78-24.094-2.591-31.12,5.559
		C108.168,29.854,89.64,77.169,88.04,82.742C85.813,90.522,86.923,109.413,106.931,112.751z"/>
</g>
</svg>