<?xml version="1.0" encoding="iso-8859-1"?>
<!-- Uploaded to: SVG Repo, www.svgrepo.com, Generator: SVG Repo Mixer Tools -->
<!DOCTYPE svg PUBLIC "-//W3C//DTD SVG 1.1//EN" "http://www.w3.org/Graphics/SVG/1.1/DTD/svg11.dtd">
<svg fill="#000000" height="800px" width="800px" version="1.1" id="Capa_1" xmlns="http://www.w3.org/2000/svg" xmlns:xlink="http://www.w3.org/1999/xlink" 
	 viewBox="0 0 453.255 453.255" xml:space="preserve">
<g>
	<path d="M415.712,61.627L415.712,61.627c-50.058-50.058-131.508-50.058-181.566,0l-7.519,7.519l-7.519-7.519
		C169.051,11.57,87.6,11.57,37.543,61.627c-50.057,50.058-50.057,131.508,0,181.566l183.782,183.781
		c1.464,1.464,3.384,2.197,5.303,2.197s3.839-0.732,5.303-2.197l183.781-183.781C465.769,193.135,465.769,111.685,415.712,61.627z
		 M405.106,232.587L226.628,411.065L48.149,232.587c-44.209-44.209-44.208-116.144,0-160.353
		c22.107-22.107,51.137-33.157,80.176-33.157c29.032,0,58.074,11.055,80.176,33.157l12.822,12.822
		c1.406,1.407,3.314,2.197,5.303,2.197s3.897-0.79,5.303-2.197l12.822-12.822c44.21-44.209,116.144-44.208,160.353,0
		C449.314,116.444,449.314,188.377,405.106,232.587z"/>
	<path d="M289.007,181.461h-11.763v-26.597c0-27.911-22.707-50.617-50.617-50.617c-27.911,0-50.617,22.707-50.617,50.617v26.597
		h-11.761c-4.142,0-7.5,3.358-7.5,7.5v110.576c0,4.142,3.358,7.5,7.5,7.5h124.758c4.142,0,7.5-3.358,7.5-7.5V188.961
		C296.507,184.819,293.149,181.461,289.007,181.461z M191.01,154.864c0-19.639,15.978-35.617,35.617-35.617
		s35.617,15.978,35.617,35.617v26.597H191.01V154.864z M281.507,292.036H171.748v-95.576h109.758V292.036z"/>
	<path d="M219.127,253.982v18.221c0,4.142,3.358,7.5,7.5,7.5s7.5-3.358,7.5-7.5v-18.221c9.063-3.122,15.596-11.729,15.596-21.839
		c0-12.735-10.361-23.095-23.096-23.095s-23.095,10.36-23.095,23.095C203.532,242.253,210.064,250.861,219.127,253.982z
		 M226.627,224.049c4.464,0,8.096,3.631,8.096,8.095s-3.632,8.096-8.096,8.096s-8.095-3.632-8.095-8.096
		S222.163,224.049,226.627,224.049z"/>
</g>
</svg>