<?xml version="1.0" encoding="utf-8"?>
<svg xmlns="http://www.w3.org/2000/svg" viewBox="34.196 96.576 1835.9917 1538.054" width="1835.99px" height="1538.05px" preserveAspectRatio="none"><path d="M 1844.33 1629.39 C 1841.21 1626.28 1798.31 1571.52 1749.17 1507.63 C 1667.8 1401.79 1659.64 1390.53 1659.64 1383.92 C 1659.64 1378.29 1660.81 1375.77 1664.69 1372.66 C 1674.02 1365.28 1677.89 1366.83 1719.45 1395.58 C 1741.01 1410.53 1758.68 1421.99 1758.68 1421.21 C 1758.68 1419.46 1762.57 1429.56 1661.59 1175.35 C 1621.01 1072.82 1571.29 948.141 1551.47 898.232 C 1531.66 848.128 1514.78 807.346 1513.8 807.346 C 1512.83 807.346 1480.01 823.271 1440.99 842.885 L 1369.89 878.23 L 1325.62 966.589 L 1281.35 1054.95 L 1285.42 1062.72 C 1291.63 1074.56 1291.06 1093.21 1284.26 1105.05 C 1275.52 1120.01 1257.45 1127.97 1242.31 1123.89 C 1212.6 1115.93 1202.69 1075.92 1224.44 1051.07 C 1227.75 1047.38 1226.96 1040.58 1203.09 886.968 C 1189.49 798.803 1176.09 711.806 1173.17 693.356 L 1167.93 659.946 L 1102.49 624.026 C 1066.56 604.406 1016.26 576.836 990.625 563.046 C 964.99 549.066 942.074 536.046 939.939 534.106 C 935.86 530.806 927.899 509.056 828.274 230.186 C 816.039 196.206 805.747 168.426 805.165 168.426 C 804.582 168.426 798.174 188.826 790.793 213.676 C 783.414 238.336 770.597 281.066 762.246 308.256 C 754.09 335.436 727.096 425.166 702.24 507.306 C 635.824 727.916 560.28 978.436 548.628 1016.69 L 538.53 1050.1 L 543.968 1060.97 C 553.872 1080.58 550.182 1101.95 534.452 1115.73 C 509.012 1138.07 471.92 1117.87 472.308 1082.14 C 472.502 1070.87 475.803 1060.97 482.018 1053.79 C 484.543 1051.07 482.988 1044.08 470.365 1000.38 C 455.025 947.753 413.855 803.851 365.11 634.116 C 340.058 546.926 335.981 534.106 334.038 537.986 C 328.019 549.446 249.562 735.882 248.592 740.93 C 245.289 757.243 226.064 762.099 216.548 749.087 C 212.664 743.844 34.196 121.046 34.196 112.886 C 34.196 105.516 43.906 96.576 52.063 96.576 C 62.549 96.576 66.627 101.046 71.677 117.546 C 74.396 125.706 112.069 257.376 155.57 409.816 L 234.803 687.136 L 251.699 647.716 C 260.825 625.966 281.023 578.576 296.365 542.266 C 313.454 501.676 325.882 474.486 328.796 471.766 C 331.32 469.436 335.981 467.496 338.894 467.496 C 350.74 467.496 351.517 469.436 375.208 551.976 C 387.443 594.696 414.049 687.336 434.439 757.827 C 454.637 828.32 480.271 917.263 491.145 955.326 C 502.02 993.389 511.536 1024.07 512.119 1023.29 C 512.702 1022.52 524.936 983.485 539.112 936.489 C 583.001 790.452 643.397 589.846 694.471 420.886 C 721.271 331.756 753.702 224.156 766.519 182.026 C 783.802 123.956 790.599 104.546 793.706 101.826 C 799.144 97.546 809.242 97.546 814.098 102.016 C 816.235 104.146 825.167 126.096 834.876 153.086 C 844.198 179.116 877.019 270.376 907.701 355.636 L 963.437 510.806 L 1078.02 573.726 C 1140.93 608.096 1193.77 637.616 1195.32 639.166 C 1197.84 641.886 1201.72 665.776 1242.89 934.546 C 1249.88 980.572 1256.3 1020.58 1257.07 1023.49 C 1258.42 1028.35 1263.86 1018.63 1302.32 941.539 L 1345.83 854.149 L 1433.79 810.065 C 1523.69 765.012 1525.26 764.429 1533.8 770.838 C 1535.55 772.197 1559.05 828.903 1585.85 896.678 C 1717.52 1228.76 1788.2 1406.64 1789.57 1407.81 C 1790.14 1408.59 1795.19 1388.97 1800.43 1364.12 C 1808.79 1324.3 1810.54 1318.48 1815.19 1313.82 C 1821.81 1307.21 1828.6 1306.83 1835.6 1313.04 L 1841.03 1317.51 L 1855.97 1468.79 C 1864.33 1551.9 1870.74 1621.62 1870.15 1623.37 C 1868.61 1628.22 1859.86 1634.63 1854.62 1634.63 C 1852.1 1634.63 1847.43 1632.3 1844.33 1629.39" style="transform-origin: 952.204px 865.592px;" id="object-0"/></svg>