<?xml version="1.0" encoding="utf-8"?>
<svg xmlns="http://www.w3.org/2000/svg" viewBox="34.22 96.583 1835.9878 1538.057" width="1835.99px" height="1538.06px" preserveAspectRatio="none"><path d="M 1844.35 101.827 C 1841.23 104.934 1798.33 159.698 1749.19 223.589 C 1667.82 329.427 1659.66 340.691 1659.66 347.293 C 1659.66 352.925 1660.83 355.45 1664.71 358.558 C 1674.04 365.937 1677.91 364.382 1719.47 335.641 C 1741.03 320.689 1758.7 309.23 1758.7 310.007 C 1758.7 311.755 1762.59 301.657 1661.61 555.863 C 1621.03 658.4 1571.31 783.075 1551.49 832.984 C 1531.68 883.088 1514.8 923.87 1513.82 923.87 C 1512.85 923.87 1480.03 907.945 1441.01 888.331 L 1369.91 852.986 L 1325.64 764.627 L 1281.37 676.266 L 1285.44 668.498 C 1291.65 656.653 1291.08 638.009 1284.28 626.163 C 1275.54 611.209 1257.47 603.248 1242.33 607.325 C 1212.62 615.287 1202.71 655.292 1224.46 680.15 C 1227.77 683.84 1226.98 690.636 1203.11 844.248 C 1189.51 932.413 1176.11 1019.41 1173.19 1037.86 L 1167.95 1071.27 L 1102.51 1107.19 C 1066.58 1126.81 1016.28 1154.38 990.649 1168.17 C 965.014 1182.15 942.098 1195.17 939.963 1197.11 C 935.884 1200.41 927.923 1222.16 828.298 1501.03 C 816.063 1535.01 805.771 1562.79 805.189 1562.79 C 804.606 1562.79 798.198 1542.39 790.817 1517.54 C 783.438 1492.88 770.621 1450.15 762.27 1422.96 C 754.114 1395.78 727.12 1306.05 702.264 1223.91 C 635.848 1003.3 560.304 752.78 548.652 714.523 L 538.554 681.121 L 543.992 670.246 C 553.896 650.632 550.206 629.27 534.476 615.482 C 509.036 593.148 471.944 613.346 472.332 649.078 C 472.526 660.342 475.827 670.246 482.042 677.431 C 484.567 680.15 483.012 687.141 470.389 730.836 C 455.049 783.463 413.879 927.365 365.134 1097.1 C 340.082 1184.29 336.005 1197.11 334.062 1193.23 C 328.043 1181.77 249.586 995.334 248.616 990.286 C 245.313 973.973 226.088 969.117 216.572 982.129 C 212.688 987.372 34.22 1610.17 34.22 1618.33 C 34.22 1625.7 43.93 1634.64 52.087 1634.64 C 62.573 1634.64 66.651 1630.17 71.701 1613.67 C 74.42 1605.51 112.093 1473.84 155.594 1321.4 L 234.827 1044.08 L 251.723 1083.5 C 260.849 1105.25 281.047 1152.64 296.389 1188.95 C 313.478 1229.54 325.906 1256.73 328.82 1259.45 C 331.344 1261.78 336.005 1263.72 338.918 1263.72 C 350.764 1263.72 351.541 1261.78 375.232 1179.24 C 387.467 1136.52 414.073 1043.88 434.463 973.389 C 454.661 902.896 480.295 813.953 491.169 775.89 C 502.044 737.827 511.56 707.143 512.143 707.921 C 512.726 708.697 524.96 747.731 539.136 794.727 C 583.025 940.764 643.421 1141.37 694.495 1310.33 C 721.295 1399.46 753.726 1507.06 766.543 1549.19 C 783.826 1607.26 790.623 1626.67 793.73 1629.39 C 799.168 1633.67 809.266 1633.67 814.122 1629.2 C 816.259 1627.07 825.191 1605.12 834.9 1578.13 C 844.222 1552.1 877.043 1460.84 907.725 1375.58 L 963.461 1220.41 L 1078.04 1157.49 C 1140.95 1123.12 1193.79 1093.6 1195.34 1092.05 C 1197.86 1089.33 1201.74 1065.44 1242.91 796.67 C 1249.9 750.644 1256.32 710.64 1257.09 707.727 C 1258.44 702.871 1263.88 712.581 1302.34 789.677 L 1345.85 877.067 L 1433.81 921.151 C 1523.71 966.204 1525.28 966.787 1533.82 960.378 C 1535.57 959.019 1559.07 902.313 1585.87 834.538 C 1717.54 502.458 1788.22 324.572 1789.59 323.406 C 1790.16 322.63 1795.21 342.244 1800.45 367.101 C 1808.81 406.913 1810.56 412.739 1815.21 417.399 C 1821.83 424.002 1828.62 424.39 1835.62 418.175 L 1841.05 413.709 L 1855.99 262.428 C 1864.35 179.312 1870.76 109.594 1870.17 107.846 C 1868.63 102.992 1859.88 96.583 1854.64 96.583 C 1852.12 96.583 1847.45 98.914 1844.35 101.827" style="" id="object-0"/></svg>