<?xml version="1.0" encoding="utf-8"?>
<!-- Uploaded to: SVG Repo, www.svgrepo.com, Generator: SVG Repo Mixer Tools -->
<svg fill="#000000" width="800px" height="800px" viewBox="0 0 32 32" version="1.1" xmlns="http://www.w3.org/2000/svg">
<title>paytm</title>
<path d="M8.773 17.193h0.556c0.002-0 0.004-0 0.007-0 0.167 0 0.304 0.133 0.308 0.3v1.165c-0 0.034-0.007 0.067-0.018 0.097l0.001-0.002c-0.045 0.121-0.159 0.205-0.293 0.205-0.001 0-0.003 0-0.004-0h-0.556c-0.002 0-0.004 0-0.006 0-0.167 0-0.304-0.133-0.309-0.3v-1.166c0.005-0.166 0.14-0.299 0.307-0.299 0.003 0 0.005 0 0.008 0h-0zM2.938 14.723h0.847c0.173 0.002 0.312 0.143 0.312 0.316 0 0.002 0 0.003-0 0.004v-0 1.045c0 0.001 0 0.003 0 0.004 0 0.173-0.139 0.314-0.312 0.316h-0.125c-0.24 0.003-0.482 0-0.722 0zM7.577 12.758c-0.002-0-0.005-0-0.008-0-0.158 0-0.286 0.126-0.29 0.282v1.279c0.005 0.167 0.141 0.3 0.308 0.3 0.002 0 0.005-0 0.007-0h1.765c0.145 0.021 0.257 0.14 0.266 0.287l0 0.001v0.175c-0.008 0.144-0.117 0.261-0.257 0.28l-0.002 0h-0.875c-0.036-0.002-0.079-0.004-0.121-0.004-1.033 0-1.871 0.838-1.871 1.871 0 0.009 0 0.018 0 0.027l-0-0.001v1.586c-0.002 0.035-0.004 0.076-0.004 0.117 0 0.977 0.792 1.768 1.768 1.768 0.036 0 0.073-0.001 0.108-0.003l-0.005 0h2.424c0.005 0 0.011 0 0.017 0 0.418 0 0.759-0.333 0.77-0.749l0-0.001v-5.169c0.007-0.061 0.011-0.132 0.011-0.203 0-1.030-0.835-1.866-1.866-1.866-0.104 0-0.206 0.008-0.306 0.025l0.011-0.001zM12.581 12.751c-0.164 0.001-0.296 0.135-0.296 0.299 0 0.001 0 0.002 0 0.003v-0 3.087c-0.002 0.028-0.002 0.062-0.002 0.095 0 1.058 0.858 1.915 1.915 1.915 0.021 0 0.042-0 0.063-0.001l-0.003 0h0.844c0.017 0 0.033 0.002 0.048 0.005l-0.002-0c0.157 0.021 0.277 0.154 0.277 0.315 0 0.16-0.118 0.292-0.272 0.314l-0.002 0-0.023 0.005-0.379 0.008h-1.576c-0.163 0.002-0.295 0.135-0.295 0.299 0 0 0 0.001 0 0.001v-0 1.362c0 0.001 0 0.002 0 0.002 0 0.164 0.131 0.297 0.295 0.3h2.187c0.017 0.001 0.037 0.001 0.057 0.001 1.058 0 1.916-0.858 1.916-1.916 0-0.033-0.001-0.066-0.003-0.099l0 0.005v-5.698c0-0 0-0.001 0-0.001 0-0.164-0.132-0.297-0.295-0.299h-1.337c-0.163 0.002-0.295 0.135-0.295 0.299 0 0 0 0.001 0 0.001v-0c-0.006 0.983 0 1.906 0 2.818-0.002 0.172-0.141 0.31-0.312 0.312h-0.561c-0.173-0.002-0.312-0.143-0.312-0.316 0-0.001 0-0.002 0-0.003v0c0.006-0.942-0.006-1.874-0.006-2.812 0-0 0-0.001 0-0.001 0-0.164-0.132-0.297-0.295-0.299h-0zM1.294 12.751c-0.16 0.001-0.29 0.132-0.29 0.292 0 0.001 0 0.002 0 0.003v-0 7.403c-0 0.004-0 0.008-0 0.012 0 0.153 0.119 0.278 0.269 0.289l0.001 0h1.362c0.164-0.001 0.296-0.134 0.296-0.298 0-0.001 0-0.001 0-0.002v0l0.005-2.072h1.278c0.020 0.001 0.044 0.001 0.068 0.001 0.967 0 1.75-0.784 1.75-1.75 0-0.036-0.001-0.071-0.003-0.106l0 0.005v-1.922c0.002-0.031 0.003-0.067 0.003-0.103 0-0.968-0.785-1.753-1.753-1.753-0.023 0-0.046 0-0.069 0.001l0.003-0zM26.091 12.672c-0.5 0.001-0.957 0.188-1.304 0.495l0.002-0.002v-0.155c-0.009-0.155-0.136-0.278-0.292-0.28h-1.337c-0.163 0.003-0.295 0.136-0.295 0.3 0 0.001 0 0.002 0 0.003v-0 7.398c0 0.001 0 0.002 0 0.002 0 0.164 0.131 0.297 0.295 0.3h1.337c0.15-0.002 0.273-0.114 0.291-0.26l0-0.001v-5.311c-0-0.006-0-0.013-0-0.019 0-0.262 0.205-0.476 0.463-0.49l0.001-0h0.245c0.108 0.009 0.205 0.050 0.283 0.113l-0.001-0.001c0.111 0.093 0.181 0.233 0.181 0.388 0 0.004-0 0.007-0 0.011v-0.001 5.091l0.005 0.194c0 0 0 0.001 0 0.001 0 0.164 0.132 0.298 0.296 0.3h1.337c0.159-0.003 0.288-0.129 0.294-0.287l0-0.001-0.001-5.306c-0-0.004-0-0.008-0-0.013 0-0.17 0.085-0.321 0.216-0.411l0.002-0.001c0.069-0.046 0.153-0.077 0.243-0.085l0.002-0h0.247c0.259 0.018 0.463 0.232 0.463 0.494 0 0.005-0 0.011-0 0.016l0-0.001c0.006 1.744 0.005 3.499 0.005 5.278 0 0 0 0.001 0 0.001 0 0.164 0.132 0.298 0.296 0.3h1.337c0.163-0.002 0.295-0.135 0.295-0.298 0-0.001 0-0.002 0-0.003v0-5.677c0.002-0.029 0.002-0.063 0.002-0.097 0-0.223-0.038-0.438-0.107-0.638l0.004 0.014c-0.274-0.796-1.014-1.358-1.886-1.362h-0.019c-0.567 0-1.079 0.24-1.439 0.624l-0.001 0.001c-0.361-0.385-0.873-0.624-1.441-0.625h-0zM20.811 11.21c-0.018 0-0.035 0.002-0.052 0.005l0.002-0c-0.85 0.237-0.679 1.435-2.226 1.537h-0.15c-0.002-0-0.003-0-0.005-0-0.021 0-0.042 0.002-0.062 0.007l0.001-0c-0.133 0.033-0.23 0.151-0.23 0.292 0 0.001 0 0.001 0 0.002v-0 1.362c0 0.001-0 0.002-0 0.003 0 0.164 0.132 0.297 0.296 0.298h0.806v5.777c0 0.001-0 0.002-0 0.004 0 0.161 0.13 0.292 0.291 0.294h1.322c0.161-0.002 0.291-0.133 0.291-0.295 0-0.001 0-0.002 0-0.003v0-5.777h0.75c0.163-0.002 0.295-0.134 0.295-0.298 0-0.001 0-0.002-0-0.004v0-1.362c0-0 0-0.001 0-0.001 0-0.164-0.132-0.297-0.295-0.299h-0.765v-1.268c0-0.001 0-0.002 0-0.003 0-0.15-0.121-0.271-0.27-0.272h-0z"></path>
</svg>