<?xml version="1.0" encoding="iso-8859-1"?>
<!-- Uploaded to: SVG Repo, www.svgrepo.com, Generator: SVG Repo Mixer Tools -->
<svg fill="#000000" height="800px" width="800px" version="1.1" id="Layer_1" xmlns="http://www.w3.org/2000/svg" xmlns:xlink="http://www.w3.org/1999/xlink" 
	 viewBox="0 0 512 512" xml:space="preserve">
<g>
	<g>
		<path d="M503.449,292.818v-11.165c0-70.433-57.3-127.733-127.733-127.733H219.942c-3.354-9.93-12.752-17.102-23.8-17.102h-9.086
			v-9.086c0-13.851-11.268-25.119-25.119-25.119h-0.534V84.443h86.046c13.851,0,25.119-11.268,25.119-25.119
			c0-13.851-11.268-25.119-25.119-25.119h-86.046v-9.086C161.403,11.268,150.135,0,136.284,0s-25.119,11.268-25.119,25.119v9.086
			H25.119C11.268,34.205,0,45.473,0,59.324c0,13.851,11.268,25.119,25.119,25.119h86.046v18.171h-0.534
			c-13.851,0-25.119,11.268-25.119,25.119v9.086h-9.086c-11.048,0-20.446,7.172-23.8,17.102H8.017c-4.427,0-8.017,3.589-8.017,8.017
			v102.614c0,4.427,3.589,8.017,8.017,8.017h44.609c3.354,9.93,12.752,17.102,23.8,17.102h119.716
			c11.048,0,20.446-7.172,23.8-17.102h155.774c5.01,0,9.086,4.076,9.086,9.086v11.165c-5.093,2.829-8.551,8.26-8.551,14.489v25.653
			c0,9.136,7.432,16.568,16.568,16.568h102.614c9.136,0,16.568-7.432,16.568-16.568v-25.653
			C512,301.078,508.542,295.647,503.449,292.818z M51.307,256.534H16.033v-86.58h35.273V256.534z M127.198,25.119
			c0-5.01,4.076-9.086,9.086-9.086s9.086,4.076,9.086,9.086v9.086h-18.171V25.119z M25.119,68.409c-5.01,0-9.086-4.076-9.086-9.086
			c0-5.01,4.076-9.086,9.086-9.086h222.33c5.01,0,9.086,4.076,9.086,9.086c0,5.01-4.076,9.086-9.086,9.086H25.119z M145.37,84.443
			v18.171h-18.171V84.443H145.37z M101.545,127.733c0-5.01,4.076-9.086,9.086-9.086h51.307c5.01,0,9.086,4.076,9.086,9.086v9.086
			h-69.478V127.733z M205.228,264.551c0,5.01-4.076,9.086-9.086,9.086H76.426c-5.01,0-9.086-4.076-9.086-9.086V161.937
			c0-5.01,4.076-9.086,9.086-9.086h119.716c5.01,0,9.086,4.076,9.086,9.086V264.551z M375.716,256.534H221.261v-86.58h154.455
			c61.592,0,111.699,50.108,111.699,111.699v9.086h-86.58v-9.086C400.835,267.803,389.567,256.534,375.716,256.534z M495.967,332.96
			c0,0.295-0.239,0.534-0.534,0.534H392.818c-0.295,0-0.534-0.239-0.534-0.534v-25.653c0-0.295,0.239-0.534,0.534-0.534h102.614
			c0.295,0,0.534,0.239,0.534,0.534V332.96z"/>
	</g>
</g>
<g>
	<g>
		<path d="M472.301,401.396c-10.854-17.366-21.567-30.271-22.017-30.812c-1.523-1.828-3.78-2.885-6.159-2.885
			c-2.379,0-4.636,1.057-6.159,2.885c-0.45,0.541-11.164,13.447-22.017,30.812c-14.995,23.99-22.596,44.121-22.596,59.831
			c0,27.995,22.777,50.772,50.772,50.772c27.995,0,50.772-22.777,50.772-50.772C494.898,445.517,487.296,425.386,472.301,401.396z
			 M444.125,495.967c-19.155,0-34.739-15.584-34.739-34.739c0-21.804,21.359-54.782,34.741-72.56
			c13.384,17.765,34.737,50.721,34.737,72.56C478.864,480.382,463.28,495.967,444.125,495.967z"/>
	</g>
</g>
</svg>