<?xml version="1.0" ?>
<!-- Uploaded to: SVG Repo, www.svgrepo.com, Generator: SVG Repo Mixer Tools -->
<svg fill="#000000" width="800px" height="800px" viewBox="0 0 56 56" id="Layer_1" version="1.1" xml:space="preserve" xmlns="http://www.w3.org/2000/svg" xmlns:xlink="http://www.w3.org/1999/xlink">
<g>
<path d="M49.6,34.4v-7.9c0-4.2-3.4-7.5-7.5-7.5H26.4v-4.2h-2.5V9.7H28V3H13.2v6.7h4.1v5.1h-3.9V19H5V5.1H3V19v11V44h2V30h5.7   c1.6,3.6,5.2,6,9.2,6s7.6-2.4,9.2-6h9.5v4.4h-3.4v7H53v-7H49.6z M15.2,7.7V5H26v2.7h-2.1h-6.7H15.2z M19.3,9.7h2.7v5.1h-2.7V9.7z    M27.7,28l-0.2,0.7c-1.1,3.2-4.1,5.3-7.5,5.3s-6.4-2.1-7.5-5.3L12.1,28H5v-7h10.4v-4.2h1.9v0h6.7v0h0.5V21h17.7   c3.1,0,5.5,2.5,5.5,5.5v7.9h-7V28H27.7z M51,39.4H37.2v-3H51V39.4z"/>
<path d="M44.1,43.3l-0.8,1c-0.7,0.8-2.8,3.6-2.8,5.2c0,2,1.6,3.6,3.6,3.6s3.6-1.6,3.6-3.6c0-1.6-2.1-4.4-2.8-5.2L44.1,43.3z    M44.1,51c-0.9,0-1.6-0.7-1.6-1.6c0-0.5,0.7-1.7,1.6-2.9c0.8,1.2,1.6,2.4,1.6,2.9C45.6,50.3,45,51,44.1,51z"/>
</g>
</svg>